<mxfile host="app.diagrams.net" agent="Mozilla/5.0 (Windows NT 10.0; Win64; x64) AppleWebKit/537.36 (KHTML, like Gecko) Chrome/131.0.0.0 Safari/537.36 Edg/131.0.0.0" version="24.9.0">
  <diagram id="C5RBs43oDa-KdzZeNtuy" name="Page-1">
    <mxGraphModel dx="861" dy="1004" grid="0" gridSize="10" guides="1" tooltips="1" connect="1" arrows="1" fold="1" page="0" pageScale="1" pageWidth="827" pageHeight="1169" math="0" shadow="0">
      <root>
        <mxCell id="WIyWlLk6GJQsqaUBKTNV-0" />
        <mxCell id="WIyWlLk6GJQsqaUBKTNV-1" parent="WIyWlLk6GJQsqaUBKTNV-0" />
        <mxCell id="71wXcE2qGCJvCkhK10cS-2" value="" style="edgeStyle=orthogonalEdgeStyle;rounded=0;orthogonalLoop=1;jettySize=auto;html=1;" edge="1" parent="WIyWlLk6GJQsqaUBKTNV-1" source="WIyWlLk6GJQsqaUBKTNV-3" target="71wXcE2qGCJvCkhK10cS-0">
          <mxGeometry relative="1" as="geometry" />
        </mxCell>
        <mxCell id="WIyWlLk6GJQsqaUBKTNV-3" value="Авторизация под ролью администратор" style="rounded=0;whiteSpace=wrap;html=1;fontSize=12;glass=0;strokeWidth=1;shadow=0;" parent="WIyWlLk6GJQsqaUBKTNV-1" vertex="1">
          <mxGeometry x="148.5" y="85" width="143" height="44" as="geometry" />
        </mxCell>
        <mxCell id="71wXcE2qGCJvCkhK10cS-12" value="" style="edgeStyle=orthogonalEdgeStyle;rounded=0;orthogonalLoop=1;jettySize=auto;html=1;" edge="1" parent="WIyWlLk6GJQsqaUBKTNV-1" source="WIyWlLk6GJQsqaUBKTNV-6" target="71wXcE2qGCJvCkhK10cS-10">
          <mxGeometry relative="1" as="geometry" />
        </mxCell>
        <mxCell id="71wXcE2qGCJvCkhK10cS-14" style="edgeStyle=orthogonalEdgeStyle;rounded=0;orthogonalLoop=1;jettySize=auto;html=1;entryX=0.5;entryY=1;entryDx=0;entryDy=0;" edge="1" parent="WIyWlLk6GJQsqaUBKTNV-1" source="WIyWlLk6GJQsqaUBKTNV-6" target="71wXcE2qGCJvCkhK10cS-16">
          <mxGeometry relative="1" as="geometry">
            <Array as="points">
              <mxPoint x="453" y="603" />
            </Array>
          </mxGeometry>
        </mxCell>
        <mxCell id="WIyWlLk6GJQsqaUBKTNV-6" value="Почта валидна" style="rhombus;whiteSpace=wrap;html=1;shadow=0;fontFamily=Helvetica;fontSize=12;align=center;strokeWidth=1;spacing=6;spacingTop=-4;" parent="WIyWlLk6GJQsqaUBKTNV-1" vertex="1">
          <mxGeometry x="159.75" y="565" width="120.5" height="76" as="geometry" />
        </mxCell>
        <mxCell id="71wXcE2qGCJvCkhK10cS-20" value="" style="edgeStyle=orthogonalEdgeStyle;rounded=0;orthogonalLoop=1;jettySize=auto;html=1;" edge="1" parent="WIyWlLk6GJQsqaUBKTNV-1" source="WIyWlLk6GJQsqaUBKTNV-10" target="71wXcE2qGCJvCkhK10cS-19">
          <mxGeometry relative="1" as="geometry" />
        </mxCell>
        <mxCell id="71wXcE2qGCJvCkhK10cS-22" style="edgeStyle=orthogonalEdgeStyle;rounded=0;orthogonalLoop=1;jettySize=auto;html=1;entryX=0;entryY=0.5;entryDx=0;entryDy=0;" edge="1" parent="WIyWlLk6GJQsqaUBKTNV-1" source="WIyWlLk6GJQsqaUBKTNV-10" target="71wXcE2qGCJvCkhK10cS-8">
          <mxGeometry relative="1" as="geometry">
            <Array as="points">
              <mxPoint x="47" y="850" />
              <mxPoint x="47" y="490" />
            </Array>
          </mxGeometry>
        </mxCell>
        <mxCell id="WIyWlLk6GJQsqaUBKTNV-10" value="Пользователь имеет роль &quot;USER&quot;" style="rhombus;whiteSpace=wrap;html=1;shadow=0;fontFamily=Helvetica;fontSize=12;align=center;strokeWidth=1;spacing=6;spacingTop=-4;" parent="WIyWlLk6GJQsqaUBKTNV-1" vertex="1">
          <mxGeometry x="98.5" y="803" width="243" height="95" as="geometry" />
        </mxCell>
        <mxCell id="71wXcE2qGCJvCkhK10cS-5" value="" style="edgeStyle=orthogonalEdgeStyle;rounded=0;orthogonalLoop=1;jettySize=auto;html=1;" edge="1" parent="WIyWlLk6GJQsqaUBKTNV-1" source="71wXcE2qGCJvCkhK10cS-0" target="71wXcE2qGCJvCkhK10cS-4">
          <mxGeometry relative="1" as="geometry" />
        </mxCell>
        <mxCell id="71wXcE2qGCJvCkhK10cS-0" value="Переход в панель администратора" style="rounded=0;whiteSpace=wrap;html=1;" vertex="1" parent="WIyWlLk6GJQsqaUBKTNV-1">
          <mxGeometry x="155.5" y="181" width="129" height="40" as="geometry" />
        </mxCell>
        <mxCell id="71wXcE2qGCJvCkhK10cS-7" value="" style="edgeStyle=orthogonalEdgeStyle;rounded=0;orthogonalLoop=1;jettySize=auto;html=1;" edge="1" parent="WIyWlLk6GJQsqaUBKTNV-1" source="71wXcE2qGCJvCkhK10cS-4" target="71wXcE2qGCJvCkhK10cS-6">
          <mxGeometry relative="1" as="geometry" />
        </mxCell>
        <mxCell id="71wXcE2qGCJvCkhK10cS-4" value="Переход в панель авторов" style="rounded=0;whiteSpace=wrap;html=1;" vertex="1" parent="WIyWlLk6GJQsqaUBKTNV-1">
          <mxGeometry x="155.5" y="279" width="129" height="40" as="geometry" />
        </mxCell>
        <mxCell id="71wXcE2qGCJvCkhK10cS-9" value="" style="edgeStyle=orthogonalEdgeStyle;rounded=0;orthogonalLoop=1;jettySize=auto;html=1;" edge="1" parent="WIyWlLk6GJQsqaUBKTNV-1" source="71wXcE2qGCJvCkhK10cS-6" target="71wXcE2qGCJvCkhK10cS-8">
          <mxGeometry relative="1" as="geometry" />
        </mxCell>
        <mxCell id="71wXcE2qGCJvCkhK10cS-6" value="Нажатие кнопки добавить автора" style="rounded=0;whiteSpace=wrap;html=1;" vertex="1" parent="WIyWlLk6GJQsqaUBKTNV-1">
          <mxGeometry x="155.5" y="372" width="129" height="40" as="geometry" />
        </mxCell>
        <mxCell id="71wXcE2qGCJvCkhK10cS-11" value="" style="edgeStyle=orthogonalEdgeStyle;rounded=0;orthogonalLoop=1;jettySize=auto;html=1;" edge="1" parent="WIyWlLk6GJQsqaUBKTNV-1" source="71wXcE2qGCJvCkhK10cS-8" target="WIyWlLk6GJQsqaUBKTNV-6">
          <mxGeometry relative="1" as="geometry" />
        </mxCell>
        <mxCell id="71wXcE2qGCJvCkhK10cS-8" value="Ввод почты пользователя в текстовое поле" style="rounded=0;whiteSpace=wrap;html=1;" vertex="1" parent="WIyWlLk6GJQsqaUBKTNV-1">
          <mxGeometry x="135.75" y="462" width="168.5" height="57" as="geometry" />
        </mxCell>
        <mxCell id="71wXcE2qGCJvCkhK10cS-18" value="" style="edgeStyle=orthogonalEdgeStyle;rounded=0;orthogonalLoop=1;jettySize=auto;html=1;" edge="1" parent="WIyWlLk6GJQsqaUBKTNV-1" source="71wXcE2qGCJvCkhK10cS-10" target="WIyWlLk6GJQsqaUBKTNV-10">
          <mxGeometry relative="1" as="geometry" />
        </mxCell>
        <mxCell id="71wXcE2qGCJvCkhK10cS-10" value="Нажатие кнопки &quot;Назначить автором&quot;" style="rounded=0;whiteSpace=wrap;html=1;" vertex="1" parent="WIyWlLk6GJQsqaUBKTNV-1">
          <mxGeometry x="155.5" y="706" width="129" height="40" as="geometry" />
        </mxCell>
        <mxCell id="71wXcE2qGCJvCkhK10cS-13" value="да" style="text;html=1;align=center;verticalAlign=middle;resizable=0;points=[];autosize=1;strokeColor=none;fillColor=none;" vertex="1" parent="WIyWlLk6GJQsqaUBKTNV-1">
          <mxGeometry x="215" y="658" width="32" height="26" as="geometry" />
        </mxCell>
        <mxCell id="71wXcE2qGCJvCkhK10cS-15" value="нет" style="text;html=1;align=center;verticalAlign=middle;resizable=0;points=[];autosize=1;strokeColor=none;fillColor=none;" vertex="1" parent="WIyWlLk6GJQsqaUBKTNV-1">
          <mxGeometry x="284" y="579" width="36" height="26" as="geometry" />
        </mxCell>
        <mxCell id="71wXcE2qGCJvCkhK10cS-17" style="edgeStyle=orthogonalEdgeStyle;rounded=0;orthogonalLoop=1;jettySize=auto;html=1;entryX=1;entryY=0.5;entryDx=0;entryDy=0;" edge="1" parent="WIyWlLk6GJQsqaUBKTNV-1" source="71wXcE2qGCJvCkhK10cS-16" target="71wXcE2qGCJvCkhK10cS-8">
          <mxGeometry relative="1" as="geometry">
            <Array as="points">
              <mxPoint x="453" y="491" />
            </Array>
          </mxGeometry>
        </mxCell>
        <mxCell id="71wXcE2qGCJvCkhK10cS-16" value="Получение сообщения о некорректном email" style="rounded=0;whiteSpace=wrap;html=1;" vertex="1" parent="WIyWlLk6GJQsqaUBKTNV-1">
          <mxGeometry x="378" y="505" width="150" height="47" as="geometry" />
        </mxCell>
        <mxCell id="71wXcE2qGCJvCkhK10cS-26" value="" style="edgeStyle=orthogonalEdgeStyle;rounded=0;orthogonalLoop=1;jettySize=auto;html=1;" edge="1" parent="WIyWlLk6GJQsqaUBKTNV-1" source="71wXcE2qGCJvCkhK10cS-19" target="71wXcE2qGCJvCkhK10cS-25">
          <mxGeometry relative="1" as="geometry" />
        </mxCell>
        <mxCell id="71wXcE2qGCJvCkhK10cS-19" value="Пользователь назначен автором" style="rounded=0;whiteSpace=wrap;html=1;" vertex="1" parent="WIyWlLk6GJQsqaUBKTNV-1">
          <mxGeometry x="155.5" y="955" width="129" height="40" as="geometry" />
        </mxCell>
        <mxCell id="71wXcE2qGCJvCkhK10cS-21" value="да" style="text;html=1;align=center;verticalAlign=middle;resizable=0;points=[];autosize=1;strokeColor=none;fillColor=none;" vertex="1" parent="WIyWlLk6GJQsqaUBKTNV-1">
          <mxGeometry x="219" y="911" width="32" height="26" as="geometry" />
        </mxCell>
        <mxCell id="71wXcE2qGCJvCkhK10cS-23" value="нет" style="text;html=1;align=center;verticalAlign=middle;resizable=0;points=[];autosize=1;strokeColor=none;fillColor=none;" vertex="1" parent="WIyWlLk6GJQsqaUBKTNV-1">
          <mxGeometry x="61" y="825" width="36" height="26" as="geometry" />
        </mxCell>
        <mxCell id="71wXcE2qGCJvCkhK10cS-27" value="" style="edgeStyle=orthogonalEdgeStyle;rounded=0;orthogonalLoop=1;jettySize=auto;html=1;" edge="1" parent="WIyWlLk6GJQsqaUBKTNV-1" source="71wXcE2qGCJvCkhK10cS-24" target="WIyWlLk6GJQsqaUBKTNV-3">
          <mxGeometry relative="1" as="geometry" />
        </mxCell>
        <mxCell id="71wXcE2qGCJvCkhK10cS-24" value="Начало" style="ellipse;whiteSpace=wrap;html=1;" vertex="1" parent="WIyWlLk6GJQsqaUBKTNV-1">
          <mxGeometry x="151" y="-29" width="138" height="66" as="geometry" />
        </mxCell>
        <mxCell id="71wXcE2qGCJvCkhK10cS-25" value="Конец" style="ellipse;whiteSpace=wrap;html=1;" vertex="1" parent="WIyWlLk6GJQsqaUBKTNV-1">
          <mxGeometry x="151" y="1042" width="138" height="66" as="geometry" />
        </mxCell>
      </root>
    </mxGraphModel>
  </diagram>
</mxfile>
